<svg width="1024" height="1024" viewBox="0 0 1024 1024" fill="none" xmlns="http://www.w3.org/2000/svg">
<defs><linearGradient id="bg" x1="512" y1="1024" x2="512" y2="307.2" gradientUnits="userSpaceOnUse"><stop stop-color="#FCFFFC"/><stop offset="1" stop-color="#E3E6E3"/></linearGradient></defs>
<rect width="1024" height="1024" fill="url(#bg)"/>
<g opacity="0.2" transform="translate(272.0010 -48.0577) scale(20)">
<path d="M0 0V7C0 9.76142 2.23858 12 5 12H18.9999C21.7613 12 23.9999 9.76142 23.9999 7V5C23.9999 2.23858 21.7613 0 18.9999 0H0Z" fill="#8B8C8B"/>
</g>
<g opacity="0.2" transform="translate(816.6204 392.0000) scale(20)">
<path d="M0 0V7C0 9.76142 2.23858 12 5 12H18.9999C21.7613 12 23.9999 9.76142 23.9999 7V5C23.9999 2.23858 21.7613 0 18.9999 0H0Z" fill="#8B8C8B"/>
</g>
<g opacity="0.2" transform="translate(128 128) scale(12)">
<path d="M36 4C35.8926 2.99386 35.4565 2.02892 34.717 1.31747C33.9782 0.606017 33.0063 0.206328 32 0.206328C30.9937 0.206328 30.0218 0.606017 29.283 1.31747C28.5435 2.02892 28.1074 2.99386 28 4C27.9128 4.82298 27.8313 5.64597 27.7555 6.46895C27.4453 9.83644 27.2307 13.2039 27.1115 16.5714C27.0334 19.3244 27.5669 22.1348 28.6781 24.6897C31.7614 32.0398 39.6699 36.9455 47.4286 36.4816C50.7961 36.2869 54.1636 36.0373 57.5311 35.733C58.354 35.6586 59.177 35.5809 60 35.5C60.8837 35.4124 61.7313 35.0319 62.3562 34.3842C62.9811 33.737 63.3321 32.8838 63.3321 32C63.3321 31.1162 62.9811 30.263 62.3562 29.6158C61.7313 28.9681 60.8837 28.5876 60 28.5C59.177 28.4191 58.354 28.3414 57.5311 28.267C54.1636 27.9627 50.7961 27.7131 47.4286 27.5184V27.5184C43.157 27.204 39.4425 24.4322 37.8534 20.7131C37.2901 19.4131 36.9627 18.0206 36.8885 16.5714V16.5714C36.7693 13.2039 36.5547 9.83644 36.2445 6.46895C36.1687 5.64597 36.0872 4.82298 36 4Z" fill="#656665"/>
<path d="M28 60C28.0825 60.9761 28.5762 61.9123 29.3249 62.6025C30.0765 63.2928 31.0216 63.6805 32 63.6805C32.9784 63.6805 33.9235 63.2928 34.6751 62.6025C35.4238 61.9123 35.9175 60.9761 36 60C36.0167 59.8 36.0333 59.6 36.05 59.4C36.35 55.8 36.65 52.2 36.95 48.6C36.9667 48.4 36.9833 48.2 37 48C37.112 46.6739 36.6834 45.4021 35.7439 44.4645C34.8081 43.5268 33.4381 43 32 43C30.5619 43 29.1919 43.5268 28.2561 44.4645C27.3166 45.4021 26.888 46.6739 27 48C27.0167 48.2 27.0333 48.4 27.05 48.6C27.35 52.2 27.65 55.8 27.95 59.4C27.9667 59.6 27.9833 59.8 28 60Z" fill="#656665"/>
<path d="M4 28C3.02386 28.0825 2.0877 28.5762 1.39747 29.3249C0.707237 30.0765 0.319468 31.0216 0.319468 32C0.319468 32.9784 0.707237 33.9235 1.39747 34.6751C2.0877 35.4238 3.02386 35.9175 4 36C4.2 36.0167 4.4 36.0333 4.6 36.05C8.2 36.35 11.8 36.65 15.4 36.95C15.6 36.9667 15.8 36.9833 16 37C17.3261 37.112 18.5979 36.6834 19.5355 35.7439C20.4732 34.8081 21 33.4381 21 32C21 30.5619 20.4732 29.1919 19.5355 28.2561C18.5979 27.3166 17.3261 26.888 16 27C15.8 27.0167 15.6 27.0333 15.4 27.05C11.8 27.35 8.2 27.65 4.6 27.95C4.4 27.9667 4.2 27.9833 4 28Z" fill="#656665"/>
</g>
</svg>
