<svg width="16" height="16" viewBox="0 0 16 16" fill="none" xmlns="http://www.w3.org/2000/svg">
<path d="M11 9.50042C11.2761 9.50042 11.5 9.27656 11.5 9.00042C11.5 8.72428 11.2761 8.50042 11 8.50042V9.00042V9.50042ZM5 8.50042C4.72386 8.50042 4.5 8.72428 4.5 9.00042C4.5 9.27656 4.72386 9.50042 5 9.50042V9.00042V8.50042ZM2.5 6.5V6H2V6.5H2.5ZM10.5 6C10.2239 6 10 6.22386 10 6.5C10 6.77614 10.2239 7 10.5 7V6.5V6ZM5.5 7C5.77614 7 6 6.77614 6 6.5C6 6.22386 5.77614 6 5.5 6V6.5V7ZM14.0045 10.0004C14.0045 9.72427 13.7807 9.50042 13.5045 9.50042C13.2284 9.50042 13.0045 9.72427 13.0045 10.0004H13.5045H14.0045ZM3 10.0008C3 9.72469 2.77614 9.50084 2.5 9.50084C2.22386 9.50084 2 9.72469 2 10.0008H2.5H3ZM7.49996 9.00002C7.49997 9.27616 7.72383 9.50001 7.99998 9.5C8.27612 9.49999 8.49997 9.27612 8.49996 8.99998L7.99996 9L7.49996 9.00002ZM7.99967 2L8.35322 1.64645C8.15798 1.4512 7.84143 1.45118 7.64616 1.6464L7.99967 2ZM5.14552 4.1464C4.95023 4.34164 4.95019 4.65822 5.14542 4.85351C5.34066 5.04879 5.65724 5.04884 5.85253 4.8536L5.49902 4.5L5.14552 4.1464ZM10.1461 4.85355C10.3414 5.04882 10.658 5.04882 10.8532 4.85355C11.0485 4.65829 11.0485 4.34171 10.8532 4.14645L10.4997 4.5L10.1461 4.85355ZM11 9.00042V8.50042H5V9.00042V9.50042H11V9.00042ZM11.7903 6.5V7C12.4609 7 13.0045 7.54366 13.0045 8.21429H13.5045H14.0045C14.0045 6.99136 13.0131 6 11.7903 6V6.5ZM13.5045 8.21429H13.0045V9.78655H13.5045H14.0045V8.21429H13.5045ZM13.5045 9.78655H13.0045C13.0045 10.4572 12.4609 11.0008 11.7903 11.0008V11.5008V12.0008C13.0131 12.0008 14.0045 11.0095 14.0045 9.78655H13.5045ZM11.7903 11.5008V11.0008H4.21429V11.5008V12.0008H11.7903V11.5008ZM4.21429 11.5008V11.0008C3.54365 11.0008 3 10.4572 3 9.78655H2.5H2C2 11.0095 2.99137 12.0008 4.21429 12.0008V11.5008ZM2.5 9.78655H3V6.5H2.5H2V9.78655H2.5ZM10.5 6.5V7H11.7903V6.5V6H10.5V6.5ZM2.5 6.5V7H5.5V6.5V6H2.5V6.5ZM13.5045 10.0004H13.0045V12.2863H13.5045H14.0045V10.0004H13.5045ZM13.5045 12.2863H13.0045C13.0045 12.957 12.4609 13.5006 11.7903 13.5006V14.0006V14.5006C13.0131 14.5006 14.0045 13.5093 14.0045 12.2863H13.5045ZM11.7903 14.0006V13.5006H4.21429V14.0006V14.5006H11.7903V14.0006ZM4.21429 14.0006V13.5006C3.54365 13.5006 3 12.957 3 12.2863H2.5H2C2 13.5093 2.99137 14.5006 4.21429 14.5006V14.0006ZM2.5 12.2863H3V10.0008H2.5H2V12.2863H2.5ZM7.99996 9L8.49996 8.99998L8.49967 1.99998L7.99967 2L7.49967 2.00002L7.49996 9.00002L7.99996 9ZM7.99967 2L7.64616 1.6464L5.14552 4.1464L5.49902 4.5L5.85253 4.8536L8.35318 2.3536L7.99967 2ZM7.99967 2L7.64612 2.35355L10.1461 4.85355L10.4997 4.5L10.8532 4.14645L8.35322 1.64645L7.99967 2Z" fill="black"/>
</svg>
