<svg width="16" height="16" viewBox="0 0 16 16" fill="none" xmlns="http://www.w3.org/2000/svg">
<path d="M2.28613 8.57387V8.07387H1.78613V8.57387H2.28613ZM6.5 9.07387C6.77614 9.07387 7 8.85001 7 8.57387C7 8.29773 6.77614 8.07387 6.5 8.07387V8.57387V9.07387ZM9.66648 8.07387C9.39034 8.07387 9.16648 8.29773 9.16648 8.57387C9.16648 8.85001 9.39034 9.07387 9.66648 9.07387V8.57387V8.07387ZM6.5522 8.71387L6.19865 8.36031C6.14749 8.41148 6.10804 8.47313 6.08303 8.54102L6.5522 8.71387ZM11.967 3.29905L12.3206 3.6526V3.6526L11.967 3.29905ZM13.411 3.29905L13.0574 3.6526V3.6526L13.411 3.29905ZM13.411 4.74298L13.0574 4.38942L13.411 4.74298ZM5.71 11L5.24082 10.8272C5.17346 11.01 5.21847 11.2153 5.35614 11.3532C5.49381 11.4912 5.69906 11.5365 5.88203 11.4695L5.71 11ZM7.98907 10.1649L8.1611 10.6343C8.22931 10.6093 8.29125 10.5698 8.34262 10.5184L7.98907 10.1649ZM6 2.5C6 2.22386 5.77614 2 5.5 2C5.22386 2 5 2.22386 5 2.5H5.5H6ZM5 6.5C5 6.77614 5.22386 7 5.5 7C5.77614 7 6 6.77614 6 6.5H5.5H5ZM7.5 5C7.77614 5 8 4.77614 8 4.5C8 4.22386 7.77614 4 7.5 4V4.5V5ZM3.5 4C3.22386 4 3 4.22386 3 4.5C3 4.77614 3.22386 5 3.5 5V4.5V4ZM12.0004 8.57387V9.07387C12.671 9.07387 13.2147 9.61752 13.2147 10.2882H13.7147H14.2147C14.2147 9.06523 13.2233 8.07387 12.0004 8.07387V8.57387ZM13.7147 10.2882H13.2147V11.431H13.7147H14.2147V10.2882H13.7147ZM13.7147 11.431H13.2147C13.2147 12.1016 12.671 12.6453 12.0004 12.6453V13.1453V13.6453C13.2233 13.6453 14.2147 12.6539 14.2147 11.431H13.7147ZM12.0004 13.1453V12.6453H4.00042V13.1453V13.6453H12.0004V13.1453ZM4.00042 13.1453V12.6453C3.32978 12.6453 2.78613 12.1016 2.78613 11.431H2.28613H1.78613C1.78613 12.6539 2.7775 13.6453 4.00042 13.6453V13.1453ZM2.28613 11.431H2.78613V8.57387H2.28613H1.78613V11.431H2.28613ZM2.28613 8.57387V9.07387H6.5V8.57387V8.07387H2.28613V8.57387ZM9.66648 8.57387V9.07387H12.0004V8.57387V8.07387H9.66648V8.57387ZM11.967 3.29905L12.3206 3.6526C12.4183 3.55489 12.5508 3.5 12.689 3.5V3V2.5C12.2856 2.5 11.8987 2.66025 11.6135 2.94549L11.967 3.29905ZM12.689 3V3.5C12.8272 3.5 12.9597 3.55489 13.0574 3.6526L13.411 3.29905L13.7645 2.94549C13.4793 2.66025 13.0924 2.5 12.689 2.5V3ZM13.411 3.29905L13.0574 3.6526C13.1551 3.75031 13.21 3.88283 13.21 4.02101H13.71H14.21C14.21 3.61761 14.0498 3.23074 13.7645 2.94549L13.411 3.29905ZM13.71 4.02101H13.21C13.21 4.15919 13.1551 4.29171 13.0574 4.38942L13.411 4.74298L13.7645 5.09653C14.0498 4.81128 14.21 4.42441 14.21 4.02101H13.71ZM6.5522 8.71387L6.90576 9.06742L12.3206 3.6526L11.967 3.29905L11.6135 2.94549L6.19865 8.36031L6.5522 8.71387ZM13.411 4.74298L13.0574 4.38942L7.63551 9.81131L7.98907 10.1649L8.34262 10.5184L13.7645 5.09653L13.411 4.74298ZM7.98907 10.1649L7.81703 9.69539L5.53797 10.5305L5.71 11L5.88203 11.4695L8.1611 10.6343L7.98907 10.1649ZM5.71 11L6.17918 11.1728L7.02138 8.88671L6.5522 8.71387L6.08303 8.54102L5.24082 10.8272L5.71 11ZM5.5 2.5H5V4.5H5.5H6V2.5H5.5ZM5.5 4.5H5V6.5H5.5H6V4.5H5.5ZM7.5 4.5V4H5.5V4.5V5H7.5V4.5ZM5.5 4.5V4H3.5V4.5V5H5.5V4.5Z" fill="black"/>
</svg>
