<svg width="16" height="16" viewBox="0 0 16 16" fill="none" xmlns="http://www.w3.org/2000/svg">
<path d="M7.80144 12.6673H3.98242C3.30832 12.6673 2.74025 12.1642 2.65884 11.495L1.84784 4.82833C1.7512 4.03396 2.37118 3.33398 3.17141 3.33398H4.66604C5.09878 3.33398 5.51985 3.47434 5.86604 3.73398L6.13271 3.93398C6.4789 4.19363 6.89998 4.33398 7.33271 4.33398H10.824C11.4957 4.33398 12.0625 4.83368 12.1468 5.50012L12.3286 6.93812M3.47713 8.02821C3.61885 7.42595 4.15629 7.00028 4.77502 7.00028H13.2073C13.8091 7.00028 14.2536 7.56155 14.1158 8.14741L13.2942 11.639C13.1525 12.2413 12.6151 12.6669 11.9963 12.6669H4.06914C3.20934 12.6669 2.57432 11.8651 2.77125 11.0282L3.47713 8.02821Z" stroke="black"/>
</svg>
