<svg width="16" height="16" viewBox="0 0 16 16" fill="none" xmlns="http://www.w3.org/2000/svg">
<path d="M10.2861 7.14286H12.0004C12.9472 7.14286 13.7147 7.91037 13.7147 8.85714V10M13.7147 10C13.7147 10.9467 12.9472 11.7143 12.0004 11.7143H4.00042C3.05364 11.7143 2.28613 10.9467 2.28613 10V7.14286H5.7147M13.7147 10V12.2859C13.7147 13.2326 12.9472 14.0001 12.0004 14.0001H4.00042C3.05364 14.0001 2.28613 13.2326 2.28613 12.2859V9.42871M11.429 9.42857H8.00042M8.00042 9.42857H4.57185M8.00042 9.42857L8.00515 2M10.4295 4.42437L8.00515 2L5.58077 4.42437" stroke="black" stroke-linecap="round" stroke-linejoin="round"/>
</svg>
