<svg width="16" height="16" viewBox="0 0 16 16" fill="none" xmlns="http://www.w3.org/2000/svg">
<path d="M4.5 7V8.5C4.5 9.60457 5.39543 10.5 6.5 10.5H8M11.5 3.5V5.5M11.5 5.5V7.5M11.5 5.5H13.5M11.5 5.5H9.5M8.5 9.5H13.5644C14.0811 9.5 14.5 9.91885 14.5 10.4355V10.5645C14.5 11.0811 14.0811 11.5 13.5644 11.5H9.43554C8.91885 11.5 8.5 11.0811 8.5 10.5645V9.5ZM1.5 4.5H6.56443C7.0811 4.5 7.49997 4.91885 7.49997 5.43554V5.56446C7.49997 6.08115 7.0811 6.5 6.56443 6.5H2.43554C1.91885 6.5 1.5 6.08115 1.5 5.56446V4.5Z" stroke="black" stroke-linecap="round"/>
</svg>
