<svg width="16" height="16" viewBox="0 0 16 16" fill="none" xmlns="http://www.w3.org/2000/svg">
<path d="M6.3422 9.21387L5.98865 8.86031C5.93749 8.91148 5.89804 8.97313 5.87303 9.04102L6.3422 9.21387ZM11.757 3.79905L12.1106 4.1526V4.1526L11.757 3.79905ZM13.201 3.79905L12.8474 4.1526V4.1526L13.201 3.79905ZM13.201 5.24298L12.8474 4.88942V4.88942L13.201 5.24298ZM5.5 11.5L5.03082 11.3272C4.96346 11.51 5.00847 11.7153 5.14614 11.8532C5.28381 11.9912 5.48906 12.0365 5.67203 11.9695L5.5 11.5ZM7.77907 10.6649L7.9511 11.1343C8.01931 11.1093 8.08125 11.0698 8.13262 11.0184L7.77907 10.6649ZM6 2.5C6 2.22386 5.77614 2 5.5 2C5.22386 2 5 2.22386 5 2.5H5.5H6ZM5 6.5C5 6.77614 5.22386 7 5.5 7C5.77614 7 6 6.77614 6 6.5H5.5H5ZM7.5 5C7.77614 5 8 4.77614 8 4.5C8 4.22386 7.77614 4 7.5 4V4.5V5ZM3.5 4C3.22386 4 3 4.22386 3 4.5C3 4.77614 3.22386 5 3.5 5V4.5V4ZM2.5 8.5V8H2V8.5H2.5ZM7 9C7.27614 9 7.5 8.77614 7.5 8.5C7.5 8.22386 7.27614 8 7 8V8.5V9ZM10 8C9.72386 8 9.5 8.22386 9.5 8.5C9.5 8.77614 9.72386 9 10 9V8.5V8ZM11.757 3.79905L12.1106 4.1526C12.2083 4.05489 12.3408 4 12.479 4V3.5V3C12.0756 3 11.6887 3.16025 11.4035 3.44549L11.757 3.79905ZM12.479 3.5V4C12.6172 4 12.7497 4.05489 12.8474 4.1526L13.201 3.79905L13.5545 3.44549C13.2693 3.16025 12.8824 3 12.479 3V3.5ZM13.201 3.79905L12.8474 4.1526C12.9451 4.25031 13 4.38283 13 4.52101H13.5H14C14 4.11761 13.8398 3.73074 13.5545 3.44549L13.201 3.79905ZM13.5 4.52101H13C13 4.65919 12.9451 4.79171 12.8474 4.88942L13.201 5.24298L13.5545 5.59653C13.8398 5.31128 14 4.92441 14 4.52101H13.5ZM6.3422 9.21387L6.69576 9.56742L12.1106 4.1526L11.757 3.79905L11.4035 3.44549L5.98865 8.86031L6.3422 9.21387ZM13.201 5.24298L12.8474 4.88942L7.42551 10.3113L7.77907 10.6649L8.13262 11.0184L13.5545 5.59653L13.201 5.24298ZM7.77907 10.6649L7.60703 10.1954L5.32797 11.0305L5.5 11.5L5.67203 11.9695L7.9511 11.1343L7.77907 10.6649ZM5.5 11.5L5.96918 11.6728L6.81138 9.38671L6.3422 9.21387L5.87303 9.04102L5.03082 11.3272L5.5 11.5ZM5.5 2.5H5V4.5H5.5H6V2.5H5.5ZM5.5 4.5H5V6.5H5.5H6V4.5H5.5ZM7.5 4.5V4H5.5V4.5V5H7.5V4.5ZM5.5 4.5V4H3.5V4.5V5H5.5V4.5ZM11.7903 8.5V9C12.4609 9 13.0045 9.54366 13.0045 10.2143H13.5045H14.0045C14.0045 8.99136 13.0131 8 11.7903 8V8.5ZM13.5045 10.2143H13.0045V11.7866H13.5045H14.0045V10.2143H13.5045ZM13.5045 11.7866H13.0045C13.0045 12.4572 12.4609 13.0008 11.7903 13.0008V13.5008V14.0008C13.0131 14.0008 14.0045 13.0095 14.0045 11.7866H13.5045ZM11.7903 13.5008V13.0008H4.21429V13.5008V14.0008H11.7903V13.5008ZM4.21429 13.5008V13.0008C3.54365 13.0008 3 12.4572 3 11.7866H2.5H2C2 13.0095 2.99137 14.0008 4.21429 14.0008V13.5008ZM2.5 11.7866H3V8.5H2.5H2V11.7866H2.5ZM10 8.5V9H11.7903V8.5V8H10V8.5ZM2.5 8.5V9H7V8.5V8H2.5V8.5Z" fill="black"/>
</svg>
