<svg width="24" height="24" viewBox="0 0 24 24" fill="none" xmlns="http://www.w3.org/2000/svg">
<path d="M12.0009 4.05176C12.2525 4.05176 12.4959 4.15124 12.6806 4.3291C12.8654 4.50696 12.974 4.74851 13.0009 5C13.0227 5.20574 13.0435 5.41145 13.0624 5.61719C13.14 6.45896 13.1928 7.3008 13.2226 8.14258C13.2411 8.50486 13.323 8.85372 13.4638 9.17871C13.8611 10.1084 14.7905 10.8013 15.8583 10.8799C16.7001 10.9286 17.5419 10.9903 18.3837 11.0664C18.5895 11.085 18.7952 11.1048 19.0009 11.125C19.2218 11.1469 19.4335 11.2424 19.5898 11.4043C19.7459 11.5661 19.8339 11.7791 19.8339 12C19.8339 12.2209 19.7459 12.4339 19.5898 12.5957C19.4335 12.7576 19.2218 12.8531 19.0009 12.875C18.7952 12.8952 18.5895 12.915 18.3837 12.9336C17.5419 13.0097 16.7001 13.0714 15.8583 13.1201C13.9188 13.2361 11.9418 12.0101 11.1708 10.1729C10.893 9.53411 10.7597 8.83081 10.7792 8.14258C10.809 7.3008 10.8618 6.45896 10.9394 5.61719C10.9583 5.41145 10.9791 5.20574 11.0009 5C11.0278 4.74851 11.1364 4.50696 11.3212 4.3291C11.5059 4.15124 11.7493 4.05176 12.0009 4.05176Z" fill="black"/>
<path d="M12.0004 14.75C12.3599 14.75 12.702 14.8819 12.936 15.1162C13.1709 15.3506 13.2785 15.6685 13.2504 16C13.2463 16.05 13.2419 16.1004 13.2377 16.1504C13.1628 17.0501 13.0881 17.9499 13.0131 18.8496C13.009 18.8996 13.0046 18.95 13.0004 19C12.9798 19.2439 12.8565 19.4779 12.6694 19.6504C12.4815 19.8229 12.245 19.9199 12.0004 19.9199C11.7558 19.9199 11.5194 19.8229 11.3315 19.6504C11.1444 19.4779 11.0211 19.2439 11.0004 19C10.9963 18.95 10.9919 18.8996 10.9877 18.8496C10.9128 17.9499 10.8381 17.0501 10.7631 16.1504C10.759 16.1004 10.7546 16.05 10.7504 16C10.7224 15.6685 10.83 15.3506 11.0649 15.1162C11.2988 14.8819 11.641 14.75 12.0004 14.75Z" fill="black"/>
<path d="M8 10.7504C8.33152 10.7224 8.64937 10.83 8.88379 11.0649C9.11811 11.2988 9.25 11.641 9.25 12.0004C9.25 12.3599 9.11811 12.702 8.88379 12.936C8.64937 13.1709 8.33152 13.2785 8 13.2504C7.95 13.2463 7.89961 13.2419 7.84961 13.2377C6.94988 13.1628 6.05012 13.0881 5.15039 13.0131C5.10039 13.009 5.05 13.0046 5 13.0004C4.75606 12.9798 4.52215 12.8565 4.34961 12.6694C4.17705 12.4815 4.08008 12.245 4.08008 12.0004C4.08008 11.7558 4.17705 11.5194 4.34961 11.3315C4.52215 11.1444 4.75606 11.0211 5 11.0004C5.05 10.9963 5.10039 10.9919 5.15039 10.9877C6.05012 10.9128 6.94988 10.8381 7.84961 10.7631C7.89961 10.759 7.95 10.7546 8 10.7504Z" fill="black"/>
</svg>
