<svg width="16" height="16" viewBox="0 0 16 16" fill="none" xmlns="http://www.w3.org/2000/svg">
<path d="M4.5 7V9C4.5 10.1046 5.39543 11 6.5 11H8.5M11.5 3.5V5.5M11.5 5.5V7.5M11.5 5.5H13.5M11.5 5.5H9.5M8.5 9.5V11.25C8.5 11.9404 9.05964 12.5 9.75 12.5H13.25C13.9403 12.5 14.5 11.9404 14.5 11.25V10.75C14.5 10.0596 13.9403 9.5 13.25 9.5H8.5ZM1.5 4H6.24997C6.94033 4 7.49997 4.55964 7.49997 5.25V5.75C7.49997 6.44036 6.94033 7 6.24997 7H2.75C2.05964 7 1.5 6.44036 1.5 5.75V4Z" stroke="black" stroke-linecap="round"/>
</svg>
