<svg width="16" height="16" viewBox="0 0 16 16" fill="none" xmlns="http://www.w3.org/2000/svg">
<path d="M11 10.5C11.2761 10.5 11.5 10.2761 11.5 9.99999C11.5 9.72385 11.2761 9.49999 11 9.49999V9.99999V10.5ZM5 9.49999C4.72386 9.49999 4.5 9.72385 4.5 9.99999C4.5 10.2761 4.72386 10.5 5 10.5V9.99999V9.49999ZM2.5 7.49957V6.99957H2V7.49957H2.5ZM10.5 6.99957C10.2239 6.99957 10 7.22343 10 7.49957C10 7.77571 10.2239 7.99957 10.5 7.99957V7.49957V6.99957ZM5.5 7.99957C5.77614 7.99957 6 7.77571 6 7.49957C6 7.22343 5.77614 6.99957 5.5 6.99957V7.49957V7.99957ZM7.50031 10C7.50032 10.2762 7.72418 10.5 8.00033 10.5C8.27647 10.5 8.50032 10.2761 8.50031 9.99998L8.00031 10L7.50031 10ZM8.00002 3L8.35357 2.64645C8.15833 2.4512 7.84178 2.45118 7.64651 2.6464L8.00002 3ZM5.14587 5.1464C4.95058 5.34164 4.95054 5.65822 5.14577 5.85351C5.34101 6.04879 5.65759 6.04884 5.85288 5.8536L5.49937 5.5L5.14587 5.1464ZM10.1465 5.85355C10.3417 6.04882 10.6583 6.04882 10.8536 5.85355C11.0488 5.65829 11.0488 5.34171 10.8536 5.14645L10.5 5.5L10.1465 5.85355ZM11 9.99999V9.49999H5V9.99999V10.5H11V9.99999ZM11.7903 7.49957V7.99957C12.4609 7.99957 13.0045 8.54323 13.0045 9.21386H13.5045H14.0045C14.0045 7.99093 13.0131 6.99957 11.7903 6.99957V7.49957ZM13.5045 9.21386H13.0045V10.7861H13.5045H14.0045V9.21386H13.5045ZM13.5045 10.7861H13.0045C13.0045 11.4568 12.4609 12.0004 11.7903 12.0004V12.5004V13.0004C13.0131 13.0004 14.0045 12.009 14.0045 10.7861H13.5045ZM11.7903 12.5004V12.0004H4.21429V12.5004V13.0004H11.7903V12.5004ZM4.21429 12.5004V12.0004C3.54365 12.0004 3 11.4568 3 10.7861H2.5H2C2 12.009 2.99137 13.0004 4.21429 13.0004V12.5004ZM2.5 10.7861H3V7.49957H2.5H2V10.7861H2.5ZM10.5 7.49957V7.99957H11.7903V7.49957V6.99957H10.5V7.49957ZM2.5 7.49957V7.99957H5.5V7.49957V6.99957H2.5V7.49957ZM8.00031 10L8.50031 9.99998L8.50002 2.99998L8.00002 3L7.50002 3.00002L7.50031 10L8.00031 10ZM8.00002 3L7.64651 2.6464L5.14587 5.1464L5.49937 5.5L5.85288 5.8536L8.35353 3.3536L8.00002 3ZM8.00002 3L7.64647 3.35355L10.1465 5.85355L10.5 5.5L10.8536 5.14645L8.35357 2.64645L8.00002 3Z" fill="black"/>
</svg>
