<svg width="24" height="24" viewBox="0 0 24 24" fill="none" xmlns="http://www.w3.org/2000/svg">
<path d="M11.7031 19H5.97457C4.96341 19 4.11131 18.2453 3.9892 17.2415L2.77269 7.24152C2.62773 6.04996 3.5577 5 4.75805 5H7C7.64911 5 8.28071 5.21053 8.8 5.6L9.2 5.9C9.71929 6.28947 10.3509 6.5 11 6.5H16.2369C17.2445 6.5 18.0947 7.24955 18.2211 8.2492L18.4938 10.4062" stroke="black" stroke-width="1.5"/>
<path d="M5.21532 12.0419C5.42789 11.1385 6.23405 10.5 7.16215 10.5H19.8105C20.7133 10.5 21.38 11.3419 21.1733 12.2207L19.9409 17.4581C19.7284 18.3615 18.9222 19 17.9941 19H6.10333C4.81363 19 3.8611 17.7973 4.1565 16.5419L5.21532 12.0419Z" stroke="black" stroke-width="1.5"/>
</svg>
