<svg width="16" height="16" viewBox="0 0 16 16" fill="none" xmlns="http://www.w3.org/2000/svg">
<path d="M8.83105 11.833C8.83097 11.6122 8.74302 11.4003 8.58691 11.2441C8.4347 11.0919 8.22942 11.0044 8.01465 11C8.00814 11.0002 8.00169 11.0029 7.99512 11.0029C7.98899 11.0029 7.98264 11.0002 7.97656 11C7.7631 11.0053 7.55957 11.0927 7.4082 11.2441C7.252 11.4003 7.16415 11.6121 7.16406 11.833C7.16406 12.054 7.25192 12.2665 7.4082 12.4228C7.56439 12.5789 7.77625 12.6669 7.99707 12.667C8.21808 12.667 8.43063 12.5791 8.58691 12.4228C8.74319 12.2665 8.83105 12.054 8.83105 11.833ZM9.83105 11.833C9.83105 12.3192 9.63776 12.786 9.29395 13.1298C8.95013 13.4737 8.4833 13.667 7.99707 13.667C7.51103 13.6669 7.0449 13.4735 6.70117 13.1298C6.35736 12.786 6.16406 12.3192 6.16406 11.833C6.16415 11.3469 6.35743 10.8808 6.70117 10.5371C6.92378 10.3145 7.19765 10.155 7.49512 10.0703V8.50289C7.49512 7.92833 7.26658 7.37698 6.86035 6.97067C6.55422 6.66453 6.16571 6.45943 5.74707 6.37692C5.65964 6.6583 5.50613 6.91766 5.29395 7.12984C4.95013 7.47366 4.4833 7.66695 3.99707 7.66695C3.51103 7.66687 3.0449 7.47348 2.70117 7.12984C2.35736 6.78603 2.16406 6.3192 2.16406 5.83297C2.16415 5.34686 2.35743 4.88081 2.70117 4.53707C3.04491 4.19333 3.51096 4.00005 3.99707 3.99996C4.4833 3.99996 4.95013 4.19325 5.29395 4.53707C5.51688 4.76006 5.67515 5.03494 5.75977 5.33297H12.1182L10.9746 4.18942C10.7793 3.99415 10.7793 3.67765 10.9746 3.48238C11.1699 3.28712 11.4864 3.28712 11.6816 3.48238L13.6523 5.45309C13.7606 5.54474 13.831 5.68005 13.8311 5.83297C13.8311 5.97162 13.7738 6.09689 13.6826 6.18746L13.6816 6.18942L11.6816 8.18941C11.4864 8.38468 11.1699 8.38468 10.9746 8.18941C10.7793 7.99415 10.7793 7.67765 10.9746 7.48238L12.124 6.33297H7.63379C8.18568 6.91944 8.49512 7.69517 8.49512 8.50289V10.0693C8.79431 10.1537 9.07022 10.3133 9.29395 10.5371C9.63758 10.8808 9.83097 11.3469 9.83105 11.833ZM3.16406 5.83297C3.16406 6.05398 3.25192 6.26653 3.4082 6.42281C3.56439 6.57892 3.77625 6.66687 3.99707 6.66695C4.21808 6.66695 4.43063 6.57909 4.58691 6.42281C4.73842 6.2713 4.82392 6.06717 4.8291 5.85348C4.8289 5.84764 4.82812 5.84179 4.82812 5.8359C4.82812 5.82902 4.82883 5.8222 4.8291 5.81539C4.82449 5.60095 4.73886 5.39613 4.58691 5.2441C4.43063 5.08782 4.21808 4.99996 3.99707 4.99996C3.77617 5.00005 3.56441 5.0879 3.4082 5.2441C3.252 5.40031 3.16415 5.61207 3.16406 5.83297Z" fill="black"/>
</svg>
